<?xml version="1.0" encoding="UTF-8"?>
<svg id="arrow-left" xmlns="http://www.w3.org/2000/svg" version="1.1" viewBox="0 0 24 24">
  <!-- Generator: Adobe Illustrator 29.4.0, SVG Export Plug-In . SVG Version: 2.1.0 Build 152)  -->
  <defs>
    <style>
      .st0 {
        fill: #da4100;
      }
    </style>
  </defs>
  <path class="st0" d="M17,11h-7.6l3.3-3.3c.4-.4.4-1,0-1.4s-1-.4-1.4,0l-5,5c0,0-.2.2-.2.3-.1.2-.1.5,0,.8,0,.1.1.2.2.3l5,5c.4.4,1,.4,1.4,0,0,0,0,0,0,0,.4-.4.4-1,0-1.4,0,0,0,0,0,0l-3.3-3.3h7.6c.6,0,1-.4,1-1s-.4-1-1-1Z"/>
</svg>